<svg width="100" height="100" viewBox="0 0 100 100" fill="none" xmlns="http://www.w3.org/2000/svg">
<circle cx="50" cy="50" r="50" fill="#85D7DC"/>
<circle cx="50" cy="50" r="39" fill="#0BAEB9"/>
<path d="M46.6667 47.3333C49.244 47.3333 51.3333 45.244 51.3333 42.6667C51.3333 40.0893 49.244 38 46.6667 38C44.0893 38 42 40.0893 42 42.6667C42 45.244 44.0893 47.3333 46.6667 47.3333Z" stroke="white" stroke-width="2.6" stroke-linecap="round" stroke-linejoin="round"/>
<path d="M62 44L56.6667 49.3333" stroke="white" stroke-width="2.6" stroke-linecap="round" stroke-linejoin="round"/>
<path d="M56.6665 43.9999L61.9998 49.3333" stroke="white" stroke-width="2.6" stroke-linecap="round" stroke-linejoin="round"/>
<path d="M35.3665 62.0001C35.3665 62.7181 35.9485 63.3001 36.6665 63.3001H56.6665C57.3845 63.3001 57.9665 62.7181 57.9665 62.0001L57.9665 61.8856C57.9666 60.7563 57.9666 60.0583 57.8869 59.4529C57.3375 55.2796 54.0536 51.9957 49.8804 51.4463C49.275 51.3666 48.577 51.3667 47.4476 51.3667C47.4099 51.3667 47.3718 51.3667 47.3332 51.3667H45.9998C45.9612 51.3667 45.9231 51.3667 45.8854 51.3667C44.7561 51.3667 44.0581 51.3666 43.4526 51.4463C39.2794 51.9957 35.9955 55.2796 35.4461 59.4529C35.3664 60.0583 35.3664 60.7563 35.3665 61.8857C35.3665 61.9233 35.3665 61.9615 35.3665 62.0001Z" stroke="white" stroke-width="2.6" stroke-linecap="round" stroke-linejoin="round"/>
</svg>
