<svg width="256" height="44" viewBox="0 0 256 44" fill="none" xmlns="http://www.w3.org/2000/svg">
<path fill-rule="evenodd" clip-rule="evenodd" d="M21.9034 1.32178L40.7732 9.34029C41.9937 9.85891 42.784 11.0419 42.784 12.3501V37.0981C42.784 40.3381 40.1149 42.9647 36.8223 42.9647H34.2526C32.2382 42.9647 30.2515 42.5032 28.4499 41.6167L21.935 38.4112L15.9291 41.5069C14.0714 42.4645 12.0056 42.9647 9.90848 42.9647H7.89084C4.59832 42.9647 1.9292 40.3381 1.9292 37.0981V12.329C1.9292 11.0412 2.69529 9.87273 3.88756 9.34196L21.9034 1.32178ZM24.816 36.3562L29.8613 38.8387C31.2248 39.5096 32.7282 39.8588 34.2526 39.8588H36.8223C38.3718 39.8588 39.6278 38.6228 39.6278 37.0981V12.3501C39.6278 12.2812 39.5862 12.219 39.522 12.1917L21.9331 4.71747L5.18843 12.1718C5.12568 12.1997 5.08536 12.2612 5.08536 12.329V37.0981C5.08536 38.6228 6.34142 39.8588 7.89084 39.8588H9.90848C11.4955 39.8588 13.0588 39.4803 14.4646 38.7557L19.0594 36.3872L17.1786 34.889C13.3594 31.8465 10.8777 27.4733 10.2489 22.6775L9.48436 16.8469C9.33695 15.7227 10.0037 14.6488 11.0875 14.2649L21.8984 10.435L33.5232 14.2482C34.6922 14.6317 35.3912 15.8085 35.157 16.999L33.8876 23.4534C33.0325 27.8007 30.6462 31.7117 27.1489 34.4978L24.816 36.3562ZM21.9182 34.6687L25.1631 32.0838C28.0829 29.7578 30.0751 26.4926 30.7889 22.8632L31.9415 17.0032L21.9381 13.7219L12.6867 16.9994L13.3791 22.2801C13.9041 26.2839 15.9759 29.9349 19.1645 32.475L21.9182 34.6687Z" fill="#0BAEB9"/>
<path fill-rule="evenodd" clip-rule="evenodd" d="M27.9084 20.1475C28.4989 20.7286 28.4989 21.6707 27.9084 22.2518L21.7592 28.303L17.9719 24.9902C17.3477 24.4442 17.2915 23.5037 17.8463 22.8895C18.4011 22.2752 19.3569 22.2199 19.981 22.7659L21.6371 24.2145L25.77 20.1475C26.3605 19.5664 27.3179 19.5664 27.9084 20.1475Z" fill="#0BAEB9"/>
<path d="M134.047 15.9397C131.67 15.9397 129.947 16.5857 128.878 17.8777C127.831 19.1485 127.308 20.8959 127.308 23.1199C127.308 24.2001 127.439 25.1849 127.7 26.0745C127.962 26.9429 128.355 27.6948 128.878 28.3302C129.402 28.9657 130.056 29.4634 130.841 29.8235C131.626 30.1624 132.542 30.3318 133.589 30.3318C134.156 30.3318 134.636 30.3212 135.029 30.3C135.443 30.2788 135.803 30.2365 136.108 30.1729V22.5162H141.212V33.4135C140.601 33.6465 139.62 33.8901 138.268 34.1443C136.915 34.4196 135.247 34.5573 133.262 34.5573C131.561 34.5573 130.012 34.3031 128.616 33.7948C127.242 33.2865 126.065 32.5451 125.083 31.5708C124.102 30.5965 123.338 29.3999 122.793 27.9808C122.27 26.5617 122.008 24.9414 122.008 23.1199C122.008 21.2772 122.302 19.6463 122.891 18.2272C123.48 16.8081 124.287 15.6114 125.312 14.6371C126.337 13.6416 127.537 12.8897 128.911 12.3814C130.307 11.873 131.79 11.6189 133.36 11.6189C134.429 11.6189 135.389 11.693 136.239 11.8413C137.112 11.9683 137.853 12.1272 138.464 12.3178C139.097 12.4873 139.609 12.6673 140.002 12.8579C140.416 13.0485 140.711 13.1968 140.885 13.3027L139.413 17.274C138.715 16.914 137.908 16.6069 136.992 16.3527C136.098 16.0774 135.116 15.9397 134.047 15.9397Z" fill="#4E4E4E"/>
<path d="M159.938 33.5724C159.109 33.8054 158.04 34.0172 156.731 34.2078C155.423 34.4196 154.049 34.5255 152.609 34.5255C151.148 34.5255 149.926 34.3349 148.945 33.9536C147.985 33.5724 147.222 33.0429 146.655 32.3651C146.088 31.6662 145.684 30.8401 145.444 29.887C145.204 28.9339 145.084 27.8854 145.084 26.7417V17.4329H149.959V26.1698C149.959 27.6948 150.166 28.7962 150.581 29.474C150.995 30.1518 151.769 30.4906 152.904 30.4906C153.253 30.4906 153.623 30.4801 154.016 30.4589C154.409 30.4165 154.758 30.3742 155.063 30.3318V17.4329H159.938V33.5724Z" fill="#4E4E4E"/>
<path d="M170.704 30.8401C171.184 30.8401 171.642 30.8295 172.078 30.8083C172.514 30.7872 172.863 30.7554 173.125 30.713V27.123C172.928 27.0806 172.634 27.0382 172.241 26.9959C171.849 26.9535 171.489 26.9323 171.162 26.9323C170.704 26.9323 170.268 26.9641 169.853 27.0276C169.461 27.07 169.112 27.1653 168.806 27.3136C168.501 27.4618 168.261 27.6631 168.087 27.9172C167.912 28.1714 167.825 28.4891 167.825 28.8703C167.825 29.6117 168.076 30.1306 168.577 30.4271C169.101 30.7024 169.81 30.8401 170.704 30.8401ZM170.311 16.9881C171.751 16.9881 172.95 17.147 173.91 17.4647C174.87 17.7824 175.633 18.2378 176.2 18.8308C176.789 19.4239 177.203 20.144 177.443 20.9912C177.683 21.8384 177.803 22.781 177.803 23.8188V33.6677C177.105 33.816 176.135 33.9854 174.891 34.176C173.648 34.3878 172.143 34.4937 170.377 34.4937C169.264 34.4937 168.25 34.3984 167.334 34.2078C166.44 34.0172 165.666 33.7101 165.011 33.2865C164.357 32.8417 163.855 32.2698 163.506 31.5708C163.157 30.8719 162.983 30.0141 162.983 28.9974C162.983 28.0231 163.179 27.1971 163.572 26.5193C163.986 25.8415 164.531 25.3014 165.207 24.899C165.884 24.4966 166.658 24.2106 167.53 24.0412C168.403 23.8506 169.308 23.7553 170.246 23.7553C170.878 23.7553 171.434 23.787 171.914 23.8506C172.416 23.8929 172.819 23.9565 173.125 24.0412V23.5964C173.125 22.7916 172.874 22.1456 172.372 21.6584C171.871 21.1713 170.998 20.9277 169.755 20.9277C168.926 20.9277 168.108 20.9912 167.301 21.1183C166.494 21.2242 165.796 21.3831 165.207 21.5949L164.586 17.7824C164.869 17.6977 165.218 17.6129 165.633 17.5282C166.069 17.4223 166.538 17.3376 167.04 17.274C167.541 17.1893 168.065 17.1258 168.61 17.0834C169.177 17.0199 169.744 16.9881 170.311 16.9881Z" fill="#4E4E4E"/>
<path d="M192.197 21.6266C191.76 21.5207 191.248 21.4148 190.659 21.3089C190.07 21.1818 189.437 21.1183 188.761 21.1183C188.456 21.1183 188.085 21.1501 187.649 21.2136C187.235 21.256 186.918 21.3089 186.7 21.3725V34.1443H181.826V18.3225C182.698 18.026 183.723 17.7506 184.901 17.4964C186.1 17.2211 187.431 17.0834 188.892 17.0834C189.154 17.0834 189.47 17.1046 189.841 17.147C190.212 17.1681 190.583 17.2105 190.953 17.274C191.324 17.3164 191.695 17.38 192.066 17.4647C192.436 17.5282 192.753 17.6129 193.014 17.7188L192.197 21.6266Z" fill="#4E4E4E"/>
<path d="M199.077 25.6615C199.077 27.123 199.416 28.2985 200.092 29.188C200.768 30.0776 201.771 30.5224 203.102 30.5224C203.538 30.5224 203.941 30.5118 204.312 30.4906C204.683 30.4483 204.988 30.4059 205.228 30.3636V21.7537C204.923 21.5631 204.519 21.4042 204.018 21.2772C203.538 21.1501 203.047 21.0865 202.545 21.0865C200.233 21.0865 199.077 22.6115 199.077 25.6615ZM210.103 33.6042C209.667 33.7313 209.165 33.8583 208.598 33.9854C208.031 34.0913 207.431 34.1866 206.798 34.2714C206.188 34.3561 205.555 34.4196 204.901 34.462C204.268 34.5255 203.658 34.5573 203.069 34.5573C201.651 34.5573 200.386 34.3561 199.274 33.9536C198.161 33.5512 197.224 32.9793 196.46 32.238C195.697 31.4755 195.108 30.5648 194.693 29.5058C194.301 28.4256 194.105 27.2183 194.105 25.8839C194.105 24.5283 194.279 23.3105 194.628 22.2303C194.977 21.1289 195.479 20.1969 196.133 19.4345C196.787 18.672 197.583 18.0895 198.521 17.6871C199.481 17.2846 200.571 17.0834 201.793 17.0834C202.469 17.0834 203.069 17.147 203.592 17.274C204.138 17.4011 204.683 17.5812 205.228 17.8142V10.2527L210.103 9.49023V33.6042Z" fill="#4E4E4E"/>
<path d="M219.156 34.1443H214.282V17.4329H219.156V34.1443ZM219.614 12.6038C219.614 13.4722 219.32 14.1605 218.731 14.6689C218.164 15.156 217.488 15.3996 216.703 15.3996C215.917 15.3996 215.23 15.156 214.641 14.6689C214.074 14.1605 213.791 13.4722 213.791 12.6038C213.791 11.7354 214.074 11.0576 214.641 10.5704C215.23 10.0621 215.917 9.80794 216.703 9.80794C217.488 9.80794 218.164 10.0621 218.731 10.5704C219.32 11.0576 219.614 11.7354 219.614 12.6038Z" fill="#4E4E4E"/>
<path d="M229.929 30.8401C230.409 30.8401 230.867 30.8295 231.303 30.8083C231.739 30.7872 232.088 30.7554 232.35 30.713V27.123C232.154 27.0806 231.859 27.0382 231.466 26.9959C231.074 26.9535 230.714 26.9323 230.387 26.9323C229.929 26.9323 229.493 26.9641 229.078 27.0276C228.686 27.07 228.337 27.1653 228.031 27.3136C227.726 27.4618 227.486 27.6631 227.312 27.9172C227.137 28.1714 227.05 28.4891 227.05 28.8703C227.05 29.6117 227.301 30.1306 227.802 30.4271C228.326 30.7024 229.035 30.8401 229.929 30.8401ZM229.536 16.9881C230.976 16.9881 232.175 17.147 233.135 17.4647C234.095 17.7824 234.858 18.2378 235.425 18.8308C236.014 19.4239 236.428 20.144 236.668 20.9912C236.908 21.8384 237.028 22.781 237.028 23.8188V33.6677C236.33 33.816 235.36 33.9854 234.117 34.176C232.873 34.3878 231.368 34.4937 229.602 34.4937C228.489 34.4937 227.475 34.3984 226.559 34.2078C225.665 34.0172 224.891 33.7101 224.236 33.2865C223.582 32.8417 223.08 32.2698 222.731 31.5708C222.382 30.8719 222.208 30.0141 222.208 28.9974C222.208 28.0231 222.404 27.1971 222.797 26.5193C223.211 25.8415 223.756 25.3014 224.433 24.899C225.109 24.4966 225.883 24.2106 226.755 24.0412C227.628 23.8506 228.533 23.7553 229.471 23.7553C230.103 23.7553 230.66 23.787 231.139 23.8506C231.641 23.8929 232.044 23.9565 232.35 24.0412V23.5964C232.35 22.7916 232.099 22.1456 231.597 21.6584C231.096 21.1713 230.223 20.9277 228.98 20.9277C228.151 20.9277 227.333 20.9912 226.526 21.1183C225.719 21.2242 225.021 21.3831 224.433 21.5949L223.811 17.7824C224.094 17.6977 224.443 17.6129 224.858 17.5282C225.294 17.4223 225.763 17.3376 226.265 17.274C226.766 17.1893 227.29 17.1258 227.835 17.0834C228.402 17.0199 228.969 16.9881 229.536 16.9881Z" fill="#4E4E4E"/>
<path d="M241.051 18.0048C241.879 17.7718 242.948 17.56 244.257 17.3694C245.565 17.1576 246.939 17.0517 248.379 17.0517C249.84 17.0517 251.051 17.2423 252.01 17.6235C252.992 17.9836 253.766 18.5025 254.333 19.1803C254.9 19.8581 255.304 20.6629 255.544 21.5949C255.784 22.5268 255.904 23.5646 255.904 24.7084V34.1443H251.029V25.2803C251.029 23.7553 250.822 22.6751 250.407 22.0396C249.993 21.4042 249.219 21.0865 248.085 21.0865C247.736 21.0865 247.365 21.1077 246.972 21.1501C246.58 21.1712 246.231 21.203 245.925 21.2454V34.1443H241.051V18.0048Z" fill="#4E4E4E"/>
<path d="M69.1686 12.1982V14.9389H62.0345V34.8085H58.8602V14.9389H51.7261V12.1982H69.1686Z" fill="#4E4E4E"/>
<path d="M74.982 34.8085H71.9385V17.8427H74.982V34.8085ZM73.4439 14.7758C72.8985 14.7758 72.4294 14.6017 72.0367 14.2537C71.6658 13.884 71.4804 13.3946 71.4804 12.7855C71.4804 12.1765 71.6658 11.698 72.0367 11.35C72.4294 10.9802 72.8985 10.7953 73.4439 10.7953C73.9893 10.7953 74.4474 10.9802 74.8183 11.35C75.211 11.698 75.4074 12.1765 75.4074 12.7855C75.4074 13.3946 75.211 13.884 74.8183 14.2537C74.4474 14.6017 73.9893 14.7758 73.4439 14.7758Z" fill="#4E4E4E"/>
<path d="M82.677 17.8427H89.1239V20.3875H82.677V28.2179C82.677 29.0662 82.7425 29.7731 82.8734 30.3387C83.0043 30.8824 83.2006 31.3175 83.4624 31.6437C83.7242 31.9482 84.0515 32.1658 84.4442 32.2963C84.8369 32.4268 85.295 32.492 85.8186 32.492C86.7349 32.492 87.4658 32.3941 88.0112 32.1984C88.5785 31.9809 88.9712 31.8286 89.1893 31.7416L89.7784 34.2539C89.4729 34.4061 88.9384 34.591 88.1749 34.8085C87.4113 35.0478 86.5386 35.1674 85.5568 35.1674C84.4005 35.1674 83.4406 35.026 82.677 34.7433C81.9353 34.4388 81.3353 33.9929 80.8771 33.4056C80.419 32.8183 80.0917 32.1005 79.8954 31.2522C79.7208 30.3822 79.6336 29.3816 79.6336 28.2506V13.1118L82.677 12.5898V17.8427Z" fill="#4E4E4E"/>
<path d="M97.7161 35.1348C95.8398 35.0913 94.509 34.6889 93.7236 33.9276C92.9382 33.1663 92.5455 31.9809 92.5455 30.3713V10.0123L95.5889 9.49023V29.8819C95.5889 30.3822 95.6326 30.7954 95.7198 31.1217C95.8071 31.448 95.9489 31.709 96.1453 31.9047C96.3416 32.1005 96.6034 32.2528 96.9307 32.3615C97.2579 32.4485 97.6615 32.5247 98.1415 32.5899L97.7161 35.1348Z" fill="#4E4E4E"/>
<path d="M100.224 26.3582C100.224 24.8574 100.443 23.5523 100.879 22.443C101.315 21.312 101.893 20.3767 102.613 19.6371C103.333 18.8976 104.162 18.3429 105.101 17.9732C106.039 17.6034 106.999 17.4185 107.98 17.4185C110.271 17.4185 112.027 18.1363 113.249 19.5719C114.471 20.9857 115.082 23.1499 115.082 26.0646C115.082 26.1951 115.082 26.3691 115.082 26.5866C115.082 26.7824 115.071 26.9672 115.049 27.1413H103.399C103.53 28.9031 104.042 30.2408 104.937 31.1543C105.831 32.0679 107.228 32.5247 109.126 32.5247C110.195 32.5247 111.089 32.4376 111.809 32.2636C112.551 32.0679 113.107 31.883 113.478 31.709L113.904 34.2539C113.533 34.4496 112.878 34.6563 111.94 34.8738C111.024 35.0913 109.977 35.2 108.798 35.2C107.315 35.2 106.028 34.9825 104.937 34.5475C103.868 34.0907 102.984 33.4708 102.286 32.6878C101.588 31.9047 101.064 30.9803 100.715 29.9145C100.388 28.827 100.224 27.6415 100.224 26.3582ZM111.907 24.6943C111.929 23.3239 111.58 22.2038 110.86 21.3337C110.162 20.4419 109.191 19.996 107.948 19.996C107.249 19.996 106.628 20.1374 106.082 20.4202C105.559 20.6812 105.111 21.0292 104.741 21.4642C104.37 21.8992 104.075 22.3995 103.857 22.965C103.661 23.5306 103.53 24.107 103.464 24.6943H111.907Z" fill="#4E4E4E"/>
</svg>
