<svg width="26" height="27" viewBox="0 0 26 27" fill="none" xmlns="http://www.w3.org/2000/svg">
<path fill-rule="evenodd" clip-rule="evenodd" d="M12.7753 0.0834961L24.6426 5.18619C25.4102 5.51622 25.9072 6.26902 25.9072 7.10152V22.8502C25.9072 24.9121 24.2286 26.5836 22.1579 26.5836H20.5418C19.2749 26.5836 18.0255 26.2899 16.8924 25.7257L12.7951 23.6858L9.01802 25.6559C7.84971 26.2652 6.55048 26.5836 5.2316 26.5836H3.96269C1.892 26.5836 0.213379 24.9121 0.213379 22.8502V7.08807C0.213379 6.26859 0.695178 5.52501 1.44501 5.18725L12.7753 0.0834961ZM14.607 22.3782L17.7801 23.9579C18.6376 24.3848 19.5831 24.6071 20.5418 24.6071H22.1579C23.1323 24.6071 23.9223 23.8205 23.9223 22.8502V7.10152C23.9223 7.0577 23.8961 7.01808 23.8557 7.00071L12.7939 2.24439L2.26313 6.98803C2.22367 7.0058 2.19831 7.04494 2.19831 7.08807V22.8502C2.19831 23.8205 2.98825 24.6071 3.96269 24.6071H5.2316C6.22967 24.6071 7.21287 24.3662 8.097 23.9051L10.9867 22.3979L9.80384 21.4444C7.4019 19.5083 5.84115 16.7254 5.44568 13.6735L4.96487 9.96313C4.87216 9.24773 5.29148 8.56436 5.97308 8.32003L12.7721 5.88281L20.0831 8.30941C20.8182 8.55342 21.2578 9.30231 21.1106 10.0599L20.3122 14.1673C19.7745 16.9337 18.2737 19.4226 16.0742 21.1955L14.607 22.3782ZM12.7846 21.3042L14.8253 19.6593C16.6616 18.1791 17.9145 16.1013 18.3634 13.7917L19.0883 10.0626L12.7971 7.97449L6.97883 10.0601L7.41429 13.4206C7.74445 15.9685 9.04747 18.2918 11.0528 19.9082L12.7846 21.3042Z" fill="white"/>
<path fill-rule="evenodd" clip-rule="evenodd" d="M16.5517 12.0635C16.9231 12.4333 16.9231 13.0328 16.5517 13.4026L12.6845 17.2534L10.3026 15.1452C9.91005 14.7977 9.87469 14.1992 10.2236 13.8084C10.5725 13.4175 11.1736 13.3823 11.5661 13.7297L12.6077 14.6516L15.2069 12.0635C15.5783 11.6937 16.1804 11.6937 16.5517 12.0635Z" fill="white"/>
</svg>
