<svg width="82" height="33" viewBox="0 0 82 33" fill="none" xmlns="http://www.w3.org/2000/svg">
<rect width="82" height="33" rx="16.5" fill="#0BAEB9"/>
<path d="M18.2251 14.168C18.2251 14.6627 18.1085 15.1293 17.8751 15.568C17.6418 16.0067 17.2685 16.366 16.7551 16.646C16.2418 16.9167 15.5838 17.052 14.7811 17.052H13.0171V21H11.4211V11.27H14.7811C15.5278 11.27 16.1578 11.4007 16.6711 11.662C17.1938 11.914 17.5811 12.2593 17.8331 12.698C18.0945 13.1367 18.2251 13.6267 18.2251 14.168ZM14.7811 15.75C15.3878 15.75 15.8405 15.6147 16.1391 15.344C16.4378 15.064 16.5871 14.672 16.5871 14.168C16.5871 13.104 15.9851 12.572 14.7811 12.572H13.0171V15.75H14.7811ZM24.0408 21.098C23.1354 21.098 22.3001 20.888 21.5348 20.468C20.7788 20.0387 20.1768 19.446 19.7288 18.69C19.2901 17.9247 19.0708 17.066 19.0708 16.114C19.0708 15.162 19.2901 14.308 19.7288 13.552C20.1768 12.796 20.7788 12.208 21.5348 11.788C22.3001 11.3587 23.1354 11.144 24.0408 11.144C24.9554 11.144 25.7908 11.3587 26.5468 11.788C27.3121 12.208 27.9141 12.796 28.3528 13.552C28.7914 14.308 29.0108 15.162 29.0108 16.114C29.0108 17.066 28.7914 17.9247 28.3528 18.69C27.9141 19.446 27.3121 20.0387 26.5468 20.468C25.7908 20.888 24.9554 21.098 24.0408 21.098ZM24.0408 19.712C24.6848 19.712 25.2588 19.5673 25.7628 19.278C26.2668 18.9793 26.6588 18.5593 26.9388 18.018C27.2281 17.4673 27.3728 16.8327 27.3728 16.114C27.3728 15.3953 27.2281 14.7653 26.9388 14.224C26.6588 13.6827 26.2668 13.2673 25.7628 12.978C25.2588 12.6887 24.6848 12.544 24.0408 12.544C23.3968 12.544 22.8228 12.6887 22.3188 12.978C21.8148 13.2673 21.4181 13.6827 21.1288 14.224C20.8488 14.7653 20.7088 15.3953 20.7088 16.114C20.7088 16.8327 20.8488 17.4673 21.1288 18.018C21.4181 18.5593 21.8148 18.9793 22.3188 19.278C22.8228 19.5673 23.3968 19.712 24.0408 19.712ZM37.2407 14.168C37.2407 14.6627 37.1241 15.1293 36.8907 15.568C36.6574 16.0067 36.2841 16.366 35.7707 16.646C35.2574 16.9167 34.5994 17.052 33.7967 17.052H32.0327V21H30.4367V11.27H33.7967C34.5434 11.27 35.1734 11.4007 35.6867 11.662C36.2094 11.914 36.5967 12.2593 36.8487 12.698C37.1101 13.1367 37.2407 13.6267 37.2407 14.168ZM33.7967 15.75C34.4034 15.75 34.8561 15.6147 35.1547 15.344C35.4534 15.064 35.6027 14.672 35.6027 14.168C35.6027 13.104 35.0007 12.572 33.7967 12.572H32.0327V15.75H33.7967ZM40.2004 11.27V17.472C40.2004 18.2093 40.3917 18.7647 40.7744 19.138C41.1664 19.5113 41.7077 19.698 42.3984 19.698C43.0984 19.698 43.6397 19.5113 44.0224 19.138C44.4144 18.7647 44.6104 18.2093 44.6104 17.472V11.27H46.2064V17.444C46.2064 18.2373 46.0337 18.9093 45.6884 19.46C45.343 20.0107 44.881 20.4213 44.3024 20.692C43.7237 20.9627 43.0844 21.098 42.3844 21.098C41.6844 21.098 41.045 20.9627 40.4664 20.692C39.897 20.4213 39.4444 20.0107 39.1084 19.46C38.7724 18.9093 38.6044 18.2373 38.6044 17.444V11.27H40.2004ZM49.7358 19.712H53.0258V21H48.1398V11.27H49.7358V19.712ZM60.082 19.012H56.008L55.308 21H53.642L57.128 11.256H58.976L62.462 21H60.782L60.082 19.012ZM59.634 17.71L58.052 13.188L56.456 17.71H59.634ZM68.8871 21L66.6472 17.108H65.4291V21H63.8331V11.27H67.1932C67.9398 11.27 68.5698 11.4007 69.0831 11.662C69.6058 11.9233 69.9932 12.2733 70.2452 12.712C70.5065 13.1507 70.6372 13.6407 70.6372 14.182C70.6372 14.8167 70.4505 15.3953 70.0772 15.918C69.7132 16.4313 69.1485 16.7813 68.3831 16.968L70.7912 21H68.8871ZM65.4291 15.834H67.1932C67.7905 15.834 68.2385 15.6847 68.5371 15.386C68.8452 15.0873 68.9992 14.686 68.9992 14.182C68.9992 13.678 68.8498 13.286 68.5512 13.006C68.2525 12.7167 67.7998 12.572 67.1932 12.572H65.4291V15.834Z" fill="white"/>
</svg>
