<svg width="100" height="100" viewBox="0 0 100 100" fill="none" xmlns="http://www.w3.org/2000/svg">
<circle cx="50" cy="50" r="50" fill="#85D7DC"/>
<circle cx="50" cy="50" r="39" fill="#0BAEB9"/>
<path fill-rule="evenodd" clip-rule="evenodd" d="M41.8516 45.3334L49.8534 37.3316L57.8551 45.3334H57.8534V49.3334H60.5201V47.9983L61.547 49.0252C62.0673 49.5456 62.9109 49.5456 63.4312 49.0252C63.9516 48.5049 63.9516 47.6613 63.4312 47.141L51.7374 35.4471C50.6969 34.4066 49.0099 34.4066 47.9693 35.4471L36.2755 47.141C35.7552 47.6613 35.7552 48.5049 36.2755 49.0252C36.7958 49.5456 37.6394 49.5456 38.1598 49.0252L39.1867 47.9983V58.6667C39.1867 60.1395 40.3806 61.3334 41.8534 61.3334H51.3333V58.6667H48.08V53.3334H51.4334C51.6301 52.3642 52.1072 51.4968 52.7763 50.8196C52.5085 50.7206 52.2203 50.6667 51.92 50.6667H48.08C46.6662 50.6667 45.52 51.8607 45.52 53.3334V58.6667H41.8534V45.3334H41.8516Z" fill="white"/>
<path d="M64.2808 60.4744L62.7208 58.9277C63.2194 58.0574 63.419 57.0476 63.289 56.053C63.1589 55.0584 62.7064 54.1339 62.0008 53.421C61.3515 52.7486 60.5148 52.2873 59.5995 52.0972C58.6843 51.9071 57.7331 51.9971 56.8697 52.3554C56.0063 52.7137 55.2709 53.3237 54.7592 54.106C54.2475 54.8882 53.9832 55.8064 54.0008 56.741C53.9962 57.5453 54.202 58.3368 54.5977 59.037C54.9933 59.7372 55.5652 60.3217 56.2565 60.7328C56.9478 61.1438 57.7345 61.3669 58.5387 61.3801C59.3428 61.3932 60.1365 61.1959 60.8408 60.8077L62.3875 62.3677C62.5114 62.4927 62.6589 62.5919 62.8214 62.6596C62.9839 62.7272 63.1581 62.7621 63.3342 62.7621C63.5102 62.7621 63.6845 62.7272 63.8469 62.6596C64.0094 62.5919 64.1569 62.4927 64.2808 62.3677C64.4058 62.2437 64.505 62.0963 64.5727 61.9338C64.6404 61.7713 64.6752 61.597 64.6752 61.421C64.6752 61.245 64.6404 61.0707 64.5727 60.9083C64.505 60.7458 64.4058 60.5983 64.2808 60.4744ZM60.0542 58.141C59.6733 58.4992 59.1703 58.6985 58.6475 58.6985C58.1247 58.6985 57.6217 58.4992 57.2408 58.141C56.8738 57.7674 56.6679 57.2648 56.6675 56.741C56.6647 56.478 56.7153 56.2172 56.8161 55.9743C56.917 55.7314 57.066 55.5114 57.2542 55.3277C57.6096 54.9741 58.0864 54.7692 58.5875 54.7544C58.8571 54.7378 59.1271 54.7771 59.3808 54.8699C59.6344 54.9626 59.8662 55.1068 60.0615 55.2933C60.2568 55.4798 60.4114 55.7047 60.5157 55.9539C60.62 56.203 60.6717 56.471 60.6675 56.741C60.6565 57.2705 60.4359 57.774 60.0542 58.141Z" fill="white"/>
</svg>
